<svg width="2000px" height="1080px"
 viewBox="0.00 0.00 992.72 536.40" xmlns="http://www.w3.org/2000/svg" xmlns:xlink="http://www.w3.org/1999/xlink">
<g id="graph0" class="graph" transform="scale(1.0 1.0) rotate(0) translate(4 532.4)">
<title>ContextMapGraph</title>
<polygon fill="white" stroke="transparent" points="-4,4 -4,-532.4 988.72,-532.4 988.72,4 -4,4"/>
<!-- CatalogProductosContext -->
<g id="node1" class="node">
<title>CatalogProductosContext</title>
<polygon fill="none" stroke="black" stroke-width="2" points="208.56,-527.65 197.14,-527.96 185.74,-528.14 174.41,-528.21 163.2,-528.15 152.15,-527.96 141.31,-527.65 130.71,-527.22 120.4,-526.66 110.41,-525.98 100.77,-525.17 91.53,-524.25 82.71,-523.21 74.34,-522.06 66.43,-520.8 59.03,-519.42 52.14,-517.95 45.77,-516.37 39.95,-514.7 34.68,-512.94 29.96,-511.09 25.81,-509.16 22.22,-507.16 19.19,-505.09 16.72,-502.97 14.79,-500.78 13.41,-498.55 12.55,-496.27 12.21,-493.96 12.37,-491.63 13.01,-489.27 14.13,-486.9 15.69,-484.53 17.68,-482.15 20.08,-479.79 22.87,-477.44 26.03,-475.11 29.54,-472.81 33.38,-470.55 37.53,-468.34 41.97,-466.17 46.68,-464.06 51.64,-462.01 56.84,-460.03 62.26,-458.12 67.88,-456.29 73.7,-454.54 79.7,-452.88 85.87,-451.31 92.19,-449.84 98.66,-448.47 105.27,-447.21 112.02,-446.05 118.88,-445 125.87,-444.06 132.97,-443.23 140.18,-442.52 147.49,-441.92 154.9,-441.44 162.41,-441.08 170,-440.83 177.68,-440.7 185.44,-440.69 193.27,-440.8 201.16,-441.02 209.12,-441.35 217.12,-441.8 225.15,-442.36 233.22,-443.03 241.29,-443.8 249.37,-444.68 257.43,-445.66 265.46,-446.74 273.43,-447.91 281.33,-449.17 289.14,-450.53 296.82,-451.96 304.37,-453.48 311.75,-455.08 318.93,-456.75 325.9,-458.49 332.61,-460.29 339.05,-462.15 345.17,-464.07 350.96,-466.04 356.39,-468.06 361.41,-470.11 366.01,-472.21 370.16,-474.33 373.83,-476.48 376.99,-478.65 379.62,-480.84 381.7,-483.04 383.2,-485.25 384.12,-487.45 384.42,-489.65 384.11,-491.84 383.16,-494.02 381.57,-496.17 379.34,-498.29 376.46,-500.38 372.93,-502.44 368.76,-504.45 363.96,-506.41 358.54,-508.32 352.52,-510.17 345.9,-511.96 338.72,-513.67 331,-515.31 322.76,-516.88 314.04,-518.35 304.87,-519.74 295.28,-521.04 285.32,-522.24 275.01,-523.34 264.42,-524.34 253.57,-525.23 242.51,-526.01 231.29,-526.67 219.96,-527.22 208.56,-527.65"/>
<text text-anchor="middle" x="192.14" y="-480.3" font-family="sans-serif" font-size="16.00">CatalogProductosContext</text>
</g>
<!-- GestionOrdenesContext -->
<g id="node2" class="node">
<title>GestionOrdenesContext</title>
<polygon fill="none" stroke="black" stroke-width="2" points="33.58,-356.47 29.79,-353.78 26.46,-351.07 23.61,-348.35 21.24,-345.63 19.38,-342.91 18.03,-340.22 17.2,-337.55 16.9,-334.92 17.13,-332.34 17.89,-329.82 19.19,-327.36 21.03,-324.98 23.39,-322.68 26.28,-320.46 29.68,-318.34 33.59,-316.32 38,-314.4 42.89,-312.59 48.23,-310.88 54.03,-309.3 60.25,-307.83 66.88,-306.48 73.89,-305.24 81.26,-304.13 88.96,-303.13 96.96,-302.26 105.24,-301.5 113.77,-300.86 122.52,-300.33 131.46,-299.92 140.55,-299.61 149.76,-299.41 159.08,-299.32 168.45,-299.33 177.85,-299.43 187.26,-299.63 196.63,-299.92 205.95,-300.3 215.17,-300.77 224.28,-301.32 233.24,-301.94 242.03,-302.65 250.62,-303.42 258.99,-304.27 267.11,-305.19 274.97,-306.17 282.54,-307.22 289.8,-308.33 296.75,-309.5 303.35,-310.73 309.6,-312.02 315.49,-313.37 321,-314.77 326.12,-316.23 330.84,-317.75 335.17,-319.32 339.08,-320.94 342.59,-322.62 345.67,-324.34 348.34,-326.12 350.6,-327.94 352.43,-329.81 353.85,-331.73 354.85,-333.69 355.44,-335.7 355.62,-337.74 355.39,-339.81 354.77,-341.93 353.75,-344.06 352.34,-346.23 350.56,-348.41 348.4,-350.61 345.87,-352.82 342.98,-355.04 339.74,-357.25 336.16,-359.46 332.24,-361.65 327.99,-363.82 323.43,-365.96 318.56,-368.07 313.39,-370.13 307.93,-372.13 302.2,-374.08 296.19,-375.95 289.93,-377.75 283.43,-379.46 276.68,-381.08 269.72,-382.6 262.55,-384.01 255.18,-385.3 247.63,-386.46 239.91,-387.5 232.04,-388.4 224.03,-389.15 215.9,-389.76 207.66,-390.21 199.34,-390.51 190.95,-390.65 182.51,-390.62 174.05,-390.43 165.57,-390.08 157.11,-389.56 148.69,-388.87 140.32,-388.03 132.03,-387.02 123.85,-385.85 115.79,-384.53 107.88,-383.06 100.15,-381.45 92.62,-379.7 85.32,-377.82 78.26,-375.82 71.48,-373.7 65,-371.48 58.83,-369.16 53.01,-366.76 47.55,-364.27 42.48,-361.72 37.82,-359.12 33.58,-356.47"/>
<text text-anchor="middle" x="192.14" y="-338.15" font-family="sans-serif" font-size="16.00">GestionOrdenesContext</text>
</g>
<!-- CatalogProductosContext&#45;&gt;GestionOrdenesContext -->
<g id="edge1" class="edge">
<title>CatalogProductosContext&#45;&gt;GestionOrdenesContext</title>
<path fill="none" stroke="black" stroke-width="2" d="M192.14,-440.67C192.14,-425.04 192.14,-407.23 192.14,-391.13"/>
<text text-anchor="middle" x="267.64" y="-412.2" font-family="sans-serif" font-size="12.00"> &#160;&#160;&#160;&#160;&#160;&#160;&#160;&#160;&#160;&#160;&#160;&#160;&#160;&#160;&#160;&#160;&#160;&#160;&#160;&#160;&#160;&#160;&#160;&#160;&#160;&#160;&#160;&#160;&#160;&#160;&#160;&#160;&#160;&#160;&#160;&#160;&#160;&#160;&#160;</text>
<polygon fill="white" stroke="transparent" points="185.14,-382.13 185.14,-399.13 199.14,-399.13 199.14,-382.13 185.14,-382.13"/>
<text text-anchor="start" x="187.14" y="-387.53" font-family="sans-serif" font-size="12.00">D</text>
<polygon fill="white" stroke="transparent" points="168.14,-430.67 168.14,-449.67 184.14,-449.67 184.14,-430.67 168.14,-430.67"/>
<polyline fill="none" stroke="black" points="184.14,-430.67 184.14,-449.67 "/>
<text text-anchor="start" x="171.14" y="-437.07" font-family="sans-serif" font-size="12.00">U</text>
<polygon fill="white" stroke="transparent" points="184.14,-430.67 184.14,-449.67 217.14,-449.67 217.14,-430.67 184.14,-430.67"/>
<polygon fill="none" stroke="black" points="184.14,-430.67 184.14,-449.67 217.14,-449.67 217.14,-430.67 184.14,-430.67"/>
<text text-anchor="start" x="187.14" y="-437.07" font-family="sans-serif" font-size="12.00">OHS</text>
</g>
<!-- GestionClientesContext -->
<g id="node3" class="node">
<title>GestionClientesContext</title>
<polygon fill="none" stroke="black" stroke-width="2" points="778.13,-196.51 777.98,-199.39 777.37,-202.25 776.31,-205.08 774.79,-207.87 772.82,-210.6 770.4,-213.26 767.54,-215.85 764.25,-218.35 760.54,-220.76 756.4,-223.06 751.86,-225.25 746.93,-227.32 741.62,-229.27 735.95,-231.08 729.93,-232.76 723.57,-234.29 716.9,-235.68 709.93,-236.93 702.68,-238.03 695.18,-238.97 687.44,-239.77 679.49,-240.42 671.35,-240.92 663.04,-241.28 654.59,-241.49 646.01,-241.56 637.34,-241.49 628.6,-241.29 619.82,-240.96 611.01,-240.51 602.21,-239.94 593.44,-239.26 584.72,-238.47 576.08,-237.59 567.55,-236.6 559.15,-235.53 550.89,-234.37 542.82,-233.14 534.94,-231.83 527.28,-230.46 519.87,-229.02 512.72,-227.53 505.85,-225.99 499.28,-224.41 493.03,-222.78 487.12,-221.12 481.56,-219.42 476.36,-217.69 471.55,-215.93 467.13,-214.15 463.12,-212.35 459.52,-210.53 456.35,-208.68 453.61,-206.83 451.31,-204.96 449.45,-203.07 448.05,-201.18 447.09,-199.27 446.59,-197.36 446.53,-195.43 446.94,-193.5 447.79,-191.57 449.09,-189.63 450.83,-187.69 453.01,-185.75 455.62,-183.81 458.64,-181.88 462.09,-179.95 465.93,-178.03 470.17,-176.13 474.79,-174.24 479.77,-172.37 485.11,-170.53 490.78,-168.72 496.78,-166.94 503.08,-165.2 509.68,-163.51 516.54,-161.86 523.66,-160.28 531.01,-158.76 538.57,-157.31 546.33,-155.93 554.27,-154.64 562.36,-153.44 570.58,-152.34 578.91,-151.34 587.32,-150.45 595.81,-149.68 604.34,-149.03 612.89,-148.51 621.44,-148.12 629.97,-147.87 638.45,-147.77 646.86,-147.81 655.19,-148.01 663.4,-148.36 671.48,-148.86 679.41,-149.52 687.16,-150.34 694.71,-151.31 702.04,-152.44 709.14,-153.73 715.99,-155.17 722.55,-156.75 728.83,-158.48 734.8,-160.35 740.44,-162.35 745.73,-164.48 750.67,-166.72 755.24,-169.08 759.43,-171.53 763.22,-174.08 766.6,-176.71 769.56,-179.42 772.09,-182.18 774.19,-184.99 775.85,-187.84 777.07,-190.72 777.83,-193.61 778.13,-196.51"/>
<text text-anchor="middle" x="612.14" y="-191.44" font-family="sans-serif" font-size="16.00">GestionClientesContext</text>
</g>
<!-- GestionOrdenesContext&#45;&gt;GestionClientesContext -->
<g id="edge2" class="edge">
<title>GestionOrdenesContext&#45;&gt;GestionClientesContext</title>
<path fill="none" stroke="black" stroke-width="2" d="M287.97,-307.93C356.85,-284.2 449.27,-252.36 517.81,-228.74"/>
<text text-anchor="middle" x="448.64" y="-265.5" font-family="sans-serif" font-size="12.00">Partnership</text>
</g>
<!-- GestionPagosContext -->
<g id="node5" class="node">
<title>GestionPagosContext</title>
<polygon fill="none" stroke="black" stroke-width="2" points="331.39,-177.17 335.65,-179.76 339.49,-182.39 342.9,-185.03 345.88,-187.69 348.39,-190.36 350.43,-193.01 352,-195.65 353.07,-198.26 353.64,-200.84 353.72,-203.37 353.29,-205.84 352.35,-208.26 350.91,-210.61 348.97,-212.88 346.53,-215.07 343.6,-217.18 340.19,-219.19 336.32,-221.11 331.99,-222.92 327.22,-224.64 322.03,-226.24 316.43,-227.74 310.45,-229.13 304.12,-230.41 297.44,-231.57 290.46,-232.63 283.18,-233.57 275.65,-234.4 267.88,-235.13 259.91,-235.74 251.77,-236.26 243.48,-236.66 235.07,-236.97 226.57,-237.17 218.02,-237.28 209.44,-237.3 200.85,-237.22 192.3,-237.05 183.8,-236.8 175.38,-236.46 167.07,-236.04 158.89,-235.54 150.87,-234.96 143.03,-234.31 135.39,-233.58 127.97,-232.78 120.8,-231.9 113.87,-230.96 107.23,-229.95 100.87,-228.87 94.81,-227.73 89.07,-226.52 83.65,-225.25 78.57,-223.91 73.82,-222.5 69.43,-221.04 65.39,-219.51 61.7,-217.92 58.38,-216.27 55.42,-214.56 52.82,-212.8 50.59,-210.97 48.73,-209.1 47.22,-207.16 46.08,-205.18 45.3,-203.15 44.87,-201.08 44.79,-198.96 45.06,-196.8 45.68,-194.62 46.63,-192.4 47.92,-190.16 49.54,-187.9 51.48,-185.62 53.75,-183.34 56.32,-181.06 59.21,-178.79 62.39,-176.53 65.88,-174.3 69.65,-172.09 73.71,-169.92 78.04,-167.8 82.65,-165.73 87.51,-163.72 92.64,-161.79 98.02,-159.93 103.63,-158.17 109.48,-156.5 115.55,-154.93 121.83,-153.48 128.32,-152.14 135,-150.94 141.86,-149.86 148.89,-148.93 156.07,-148.14 163.4,-147.5 170.85,-147.02 178.41,-146.69 186.06,-146.52 193.79,-146.52 201.57,-146.68 209.4,-147 217.24,-147.49 225.08,-148.15 232.9,-148.97 240.67,-149.94 248.37,-151.07 255.98,-152.36 263.48,-153.79 270.83,-155.36 278.02,-157.07 285.02,-158.9 291.81,-160.86 298.37,-162.92 304.66,-165.1 310.66,-167.36 316.36,-169.71 321.73,-172.14 326.75,-174.63 331.39,-177.17"/>
<text text-anchor="middle" x="192.14" y="-191.44" font-family="sans-serif" font-size="16.00">GestionPagosContext</text>
</g>
<!-- GestionOrdenesContext&#45;&gt;GestionPagosContext -->
<g id="edge3" class="edge">
<title>GestionOrdenesContext&#45;&gt;GestionPagosContext</title>
<path fill="none" stroke="black" stroke-width="2" d="M192.14,-299.48C192.14,-279.94 192.14,-256.69 192.14,-237.21"/>
<text text-anchor="middle" x="226.64" y="-265.5" font-family="sans-serif" font-size="12.00">Partnership</text>
</g>
<!-- GestionEnviosContext -->
<g id="node4" class="node">
<title>GestionEnviosContext</title>
<polygon fill="none" stroke="black" stroke-width="2" points="753.8,-67.78 749.49,-70.39 744.82,-72.94 739.8,-75.41 734.46,-77.79 728.8,-80.06 722.86,-82.24 716.64,-84.29 710.17,-86.21 703.48,-88.01 696.57,-89.66 689.48,-91.17 682.22,-92.53 674.82,-93.73 667.29,-94.77 659.65,-95.65 651.94,-96.36 644.15,-96.91 636.33,-97.3 628.48,-97.52 620.62,-97.57 612.78,-97.46 604.96,-97.19 597.2,-96.77 589.5,-96.2 581.89,-95.48 574.38,-94.62 566.98,-93.62 559.71,-92.49 552.59,-91.24 545.63,-89.88 538.85,-88.41 532.25,-86.84 525.86,-85.18 519.68,-83.44 513.73,-81.62 508.01,-79.73 502.56,-77.78 497.36,-75.78 492.44,-73.74 487.81,-71.66 483.48,-69.55 479.45,-67.42 475.74,-65.27 472.36,-63.12 469.31,-60.96 466.61,-58.8 464.26,-56.65 462.27,-54.51 460.66,-52.38 459.42,-50.28 458.56,-48.2 458.09,-46.15 458.01,-44.13 458.33,-42.14 459.05,-40.18 460.17,-38.26 461.7,-36.38 463.63,-34.54 465.97,-32.74 468.71,-30.98 471.85,-29.26 475.38,-27.59 479.31,-25.96 483.62,-24.37 488.32,-22.84 493.38,-21.35 498.79,-19.91 504.56,-18.53 510.66,-17.19 517.08,-15.91 523.8,-14.69 530.81,-13.52 538.1,-12.42 545.62,-11.38 553.38,-10.4 561.35,-9.5 569.5,-8.66 577.81,-7.9 586.26,-7.23 594.82,-6.63 603.46,-6.13 612.15,-5.71 620.88,-5.39 629.61,-5.17 638.31,-5.05 646.96,-5.04 655.52,-5.13 663.97,-5.35 672.29,-5.68 680.43,-6.12 688.38,-6.69 696.11,-7.39 703.6,-8.21 710.81,-9.16 717.72,-10.24 724.32,-11.44 730.57,-12.78 736.47,-14.23 741.98,-15.82 747.1,-17.52 751.8,-19.35 756.08,-21.29 759.91,-23.34 763.3,-25.5 766.22,-27.75 768.67,-30.1 770.65,-32.54 772.15,-35.05 773.17,-37.63 773.71,-40.27 773.77,-42.97 773.36,-45.7 772.47,-48.47 771.12,-51.26 769.31,-54.05 767.06,-56.84 764.37,-59.63 761.25,-62.38 757.72,-65.1 753.8,-67.78"/>
<text text-anchor="middle" x="612.14" y="-44.89" font-family="sans-serif" font-size="16.00">GestionEnviosContext</text>
</g>
<!-- GestionClientesContext&#45;&gt;GestionEnviosContext -->
<g id="edge4" class="edge">
<title>GestionClientesContext&#45;&gt;GestionEnviosContext</title>
<path fill="none" stroke="black" stroke-width="2" d="M612.14,-148.5C612.14,-132.29 612.14,-114.01 612.14,-97.62"/>
<text text-anchor="middle" x="646.64" y="-118.78" font-family="sans-serif" font-size="12.00">Partnership</text>
</g>
<!-- GestionAutorizacionAutenticacionContext -->
<g id="node6" class="node">
<title>GestionAutorizacionAutenticacionContext</title>
<polygon fill="none" stroke="black" stroke-width="2" points="861.04,-308.57 874.59,-310.41 887.58,-312.33 899.95,-314.32 911.63,-316.38 922.59,-318.5 932.78,-320.67 942.16,-322.88 950.68,-325.12 958.31,-327.4 965.02,-329.69 970.79,-332 975.58,-334.31 979.39,-336.63 982.2,-338.93 984.01,-341.22 984.8,-343.5 984.59,-345.74 983.38,-347.96 981.17,-350.14 978,-352.28 973.87,-354.37 968.82,-356.41 962.87,-358.4 956.05,-360.34 948.4,-362.21 939.96,-364.02 930.77,-365.76 920.88,-367.44 910.33,-369.04 899.18,-370.57 887.47,-372.03 875.25,-373.41 862.58,-374.71 849.52,-375.93 836.1,-377.07 822.4,-378.12 808.45,-379.1 794.32,-379.99 780.05,-380.79 765.69,-381.5 751.29,-382.13 736.89,-382.67 722.54,-383.12 708.28,-383.48 694.15,-383.75 680.19,-383.92 666.42,-384 652.89,-383.98 639.61,-383.87 626.63,-383.67 613.95,-383.36 601.6,-382.96 589.61,-382.46 577.98,-381.86 566.73,-381.16 555.87,-380.36 545.42,-379.46 535.38,-378.46 525.77,-377.36 516.57,-376.17 507.82,-374.88 499.49,-373.49 491.61,-372 484.17,-370.43 477.18,-368.76 470.63,-367.01 464.54,-365.18 458.9,-363.26 453.72,-361.26 449.01,-359.2 444.76,-357.06 440.98,-354.87 437.69,-352.61 434.87,-350.31 432.56,-347.96 430.74,-345.57 429.44,-343.15 428.66,-340.7 428.41,-338.24 428.7,-335.78 429.54,-333.31 430.95,-330.85 432.94,-328.41 435.51,-325.99 438.68,-323.6 442.45,-321.26 446.84,-318.97 451.86,-316.74 457.5,-314.58 463.77,-312.49 470.69,-310.49 478.24,-308.58 486.43,-306.77 495.25,-305.06 504.69,-303.47 514.75,-302 525.41,-300.65 536.66,-299.43 548.48,-298.35 560.85,-297.4 573.73,-296.6 587.11,-295.95 600.95,-295.44 615.21,-295.08 629.85,-294.87 644.83,-294.82 660.11,-294.91 675.64,-295.15 691.37,-295.54 707.24,-296.08 723.2,-296.76 739.19,-297.58 755.16,-298.53 771.03,-299.62 786.76,-300.83 802.28,-302.16 817.53,-303.6 832.45,-305.16 846.97,-306.82 861.04,-308.57"/>
<text text-anchor="middle" x="685.14" y="-338.15" font-family="sans-serif" font-size="16.00">GestionAutorizacionAutenticacionContext</text>
</g>
<!-- GestionAutorizacionAutenticacionContext&#45;&gt;GestionClientesContext -->
<g id="edge5" class="edge">
<title>GestionAutorizacionAutenticacionContext&#45;&gt;GestionClientesContext</title>
<path fill="none" stroke="black" stroke-width="2" d="M661.84,-294.76C653.25,-277.73 643.52,-258.45 634.97,-241.49"/>
<text text-anchor="middle" x="725.64" y="-265.5" font-family="sans-serif" font-size="12.00"> &#160;&#160;&#160;&#160;&#160;&#160;&#160;&#160;&#160;&#160;&#160;&#160;&#160;&#160;&#160;&#160;&#160;&#160;&#160;&#160;&#160;&#160;&#160;&#160;&#160;&#160;&#160;&#160;&#160;&#160;&#160;&#160;&#160;&#160;&#160;&#160;&#160;&#160;&#160;</text>
<polygon fill="white" stroke="transparent" points="615.97,-231.49 615.97,-250.49 631.97,-250.49 631.97,-231.49 615.97,-231.49"/>
<polyline fill="none" stroke="black" points="631.97,-231.49 631.97,-250.49 "/>
<text text-anchor="start" x="618.97" y="-237.89" font-family="sans-serif" font-size="12.00">D</text>
<polygon fill="white" stroke="transparent" points="631.97,-231.49 631.97,-250.49 653.97,-250.49 653.97,-231.49 631.97,-231.49"/>
<polygon fill="none" stroke="black" points="631.97,-231.49 631.97,-250.49 653.97,-250.49 653.97,-231.49 631.97,-231.49"/>
<text text-anchor="start" x="634.97" y="-237.89" font-family="sans-serif" font-size="12.00">CF</text>
<polygon fill="white" stroke="transparent" points="643.84,-284.76 643.84,-303.76 659.84,-303.76 659.84,-284.76 643.84,-284.76"/>
<polyline fill="none" stroke="black" points="659.84,-284.76 659.84,-303.76 "/>
<text text-anchor="start" x="646.84" y="-291.16" font-family="sans-serif" font-size="12.00">U</text>
<polygon fill="white" stroke="transparent" points="659.84,-284.76 659.84,-303.76 680.84,-303.76 680.84,-284.76 659.84,-284.76"/>
<polygon fill="none" stroke="black" points="659.84,-284.76 659.84,-303.76 680.84,-303.76 680.84,-284.76 659.84,-284.76"/>
<text text-anchor="start" x="662.84" y="-291.16" font-family="sans-serif" font-size="12.00">PL</text>
</g>
</g>
</svg>
